<mxfile host="Electron" agent="Mozilla/5.0 (Windows NT 10.0; Win64; x64) AppleWebKit/537.36 (KHTML, like Gecko) draw.io/26.2.2 Chrome/134.0.6998.178 Electron/35.1.2 Safari/537.36" version="26.2.2">
  <diagram name="Page-1" id="8ZYtyz_RisWtIQEy7C3s">
    <mxGraphModel dx="1297" dy="762" grid="1" gridSize="10" guides="1" tooltips="1" connect="1" arrows="1" fold="1" page="1" pageScale="1" pageWidth="850" pageHeight="1100" math="0" shadow="0">
      <root>
        <mxCell id="0" />
        <mxCell id="1" parent="0" />
        <mxCell id="xbcKQG1acnI75cSRwL7v-1" value="Dispositivo 1" style="rounded=0;whiteSpace=wrap;html=1;" vertex="1" parent="1">
          <mxGeometry x="70" y="40" width="160" height="200" as="geometry" />
        </mxCell>
        <mxCell id="xbcKQG1acnI75cSRwL7v-2" value="Dispositivo 2" style="rounded=0;whiteSpace=wrap;html=1;" vertex="1" parent="1">
          <mxGeometry x="440" y="60" width="160" height="160" as="geometry" />
        </mxCell>
        <mxCell id="xbcKQG1acnI75cSRwL7v-4" style="edgeStyle=orthogonalEdgeStyle;rounded=0;orthogonalLoop=1;jettySize=auto;html=1;exitX=1;exitY=0.25;exitDx=0;exitDy=0;entryX=0;entryY=0.189;entryDx=0;entryDy=0;entryPerimeter=0;strokeColor=#FF0000;" edge="1" parent="1" source="xbcKQG1acnI75cSRwL7v-1" target="xbcKQG1acnI75cSRwL7v-2">
          <mxGeometry relative="1" as="geometry" />
        </mxCell>
        <mxCell id="xbcKQG1acnI75cSRwL7v-5" style="edgeStyle=orthogonalEdgeStyle;rounded=0;orthogonalLoop=1;jettySize=auto;html=1;exitX=0;exitY=0.5;exitDx=0;exitDy=0;entryX=1;entryY=0.5;entryDx=0;entryDy=0;strokeColor=#53EDFF;" edge="1" parent="1" source="xbcKQG1acnI75cSRwL7v-2" target="xbcKQG1acnI75cSRwL7v-1">
          <mxGeometry relative="1" as="geometry">
            <mxPoint x="260" y="139" as="targetPoint" />
          </mxGeometry>
        </mxCell>
        <mxCell id="xbcKQG1acnI75cSRwL7v-6" value="" style="endArrow=none;html=1;rounded=0;exitX=1.001;exitY=0.798;exitDx=0;exitDy=0;exitPerimeter=0;strokeColor=#000000;" edge="1" parent="1" source="xbcKQG1acnI75cSRwL7v-1">
          <mxGeometry width="50" height="50" relative="1" as="geometry">
            <mxPoint x="240" y="198" as="sourcePoint" />
            <mxPoint x="440" y="198" as="targetPoint" />
          </mxGeometry>
        </mxCell>
        <mxCell id="xbcKQG1acnI75cSRwL7v-7" value="GND" style="text;html=1;align=center;verticalAlign=middle;whiteSpace=wrap;rounded=0;" vertex="1" parent="1">
          <mxGeometry x="325" y="200" width="30" height="20" as="geometry" />
        </mxCell>
        <mxCell id="xbcKQG1acnI75cSRwL7v-8" value="TX" style="text;html=1;align=center;verticalAlign=middle;whiteSpace=wrap;rounded=0;" vertex="1" parent="1">
          <mxGeometry x="204" y="80" width="30" height="20" as="geometry" />
        </mxCell>
        <mxCell id="xbcKQG1acnI75cSRwL7v-9" value="TX" style="text;html=1;align=center;verticalAlign=middle;whiteSpace=wrap;rounded=0;" vertex="1" parent="1">
          <mxGeometry x="434" y="130" width="30" height="20" as="geometry" />
        </mxCell>
        <mxCell id="xbcKQG1acnI75cSRwL7v-10" value="RX" style="text;html=1;align=center;verticalAlign=middle;whiteSpace=wrap;rounded=0;" vertex="1" parent="1">
          <mxGeometry x="435" y="80" width="30" height="20" as="geometry" />
        </mxCell>
        <mxCell id="xbcKQG1acnI75cSRwL7v-11" value="RX" style="text;html=1;align=center;verticalAlign=middle;whiteSpace=wrap;rounded=0;" vertex="1" parent="1">
          <mxGeometry x="204" y="130" width="30" height="20" as="geometry" />
        </mxCell>
      </root>
    </mxGraphModel>
  </diagram>
</mxfile>
